<?xml version="1.0" encoding="utf-8"?>
<!-- Generator: Adobe Illustrator 26.3.1, SVG Export Plug-In . SVG Version: 6.00 Build 0)  -->
<svg version="1.1" id="Layer_1" xmlns="http://www.w3.org/2000/svg" xmlns:xlink="http://www.w3.org/1999/xlink" x="0px" y="0px"
	 viewBox="0 0 63.3 9.5" style="enable-background:new 0 0 63.3 9.5;" xml:space="preserve">
<style type="text/css">
	.st0{fill:#0A0A0A;}
</style>
<g id="Layer_2_00000029747453137314164350000017598109010424630438_">
	<g id="Layer_1-2">
		<path class="st0" d="M0,4.8C0,1.9,2.2,0,5.5,0S11,1.7,11,4.2H8.7C8.6,2.7,7.3,1.9,5.5,1.9s-3.2,1-3.2,2.9s1.3,2.9,3.2,2.9
			s3.1-0.8,3.2-2.3H11c0,2.5-2.2,4.2-5.5,4.2S0,7.6,0,4.8z"/>
		<path class="st0" d="M13.3,0.2h2.2v7.2h6v1.9h-8.2V0.2z"/>
		<path class="st0" d="M23.6,0.2h2.2v9.1h-2.2V0.2z"/>
		<path class="st0" d="M28.7,0.2h8.9v1.9h-6.6v1.7h6.5v1.8h-6.5v1.8h6.6v1.9h-8.9V0.2z"/>
		<path class="st0" d="M40.2,0.2h1.9L48.5,6V0.2h2.2v9.1h-1.9l-6.4-5.8v5.8h-2.2V0.2z"/>
		<path class="st0" d="M56.8,2.1h-4.2V0.2h10.7v1.9H59v7.2h-2.2V2.1z"/>
	</g>
</g>
</svg>
